<?xml version="1.0" encoding="UTF-8"?>
<svg width="61px" height="87px" viewBox="0 0 61 87" version="1.1" xmlns="http://www.w3.org/2000/svg" xmlns:xlink="http://www.w3.org/1999/xlink">
    <title>hearts_ace</title>
    <g id="V1" stroke="none" stroke-width="1" fill="none" fill-rule="evenodd">
        <g id="img-1" transform="translate(-556.000000, -479.000000)" fill-rule="nonzero">
            <g id="hearts_ace" transform="translate(556.000000, 479.000000)">
                <rect id="rect4266" fill="#8B112F" x="0" y="0" width="61" height="87"></rect>
                <path d="M4.49711689,16 C4.262267,15.4974756 3.95910861,15.0279007 3.59892503,14.6087334 C3.36663341,14.3384092 3.11130011,14.0895238 2.85262491,13.8451326 C2.65055826,13.6542404 2.44490818,13.4643751 2.27957482,13.2400092 C2.16788312,13.088424 2.07467477,12.9197831 2.03026643,12.7359418 C1.94984141,12.4029662 2.03734987,12.0460162 2.20240812,11.7469086 C2.29908315,11.5717407 2.42276651,11.4106404 2.57512489,11.2825822 C2.80149165,11.0923146 3.09684166,10.9785489 3.38974175,11.0033835 C3.65835022,11.0261456 3.90953357,11.1628825 4.10555029,11.3506648 C4.27902534,11.5168654 4.41414202,11.7240326 4.5,11.951032 C4.58585862,11.7240326 4.7209753,11.5168654 4.89445035,11.3506648 C5.09046706,11.1628825 5.34165041,11.0261482 5.61025889,11.0033835 C5.90315234,10.9785569 6.19850235,11.0923146 6.4248715,11.2825822 C6.5772298,11.4106404 6.70091659,11.5717407 6.79758832,11.7469086 C6.96266096,12.0460162 7.05015835,12.4029662 6.96973006,12.7359418 C6.92532494,12.9197831 6.83211327,13.088424 6.72041908,13.2400092 C6.55508832,13.4643751 6.34943574,13.6542404 6.14737493,13.8451326 C5.88869734,14.0895238 5.633359,14.3384092 5.40107561,14.6087334 C5.0408838,15.0279007 4.7377254,15.4974756 4.50287525,16" id="path3940-9-0" fill="#FFFFFF"></path>
                <path d="M56.4971171,71 C56.2622656,71.5025146 55.9591078,71.9720957 55.598924,72.3912616 C55.3666324,72.6615768 55.1112994,72.9104692 54.8526232,73.1548516 C54.650556,73.3457511 54.4449066,73.5356052 54.2795751,73.7599702 C54.1678812,73.911576 54.0746746,74.0802005 54.0302647,74.2640437 C53.9498414,74.5970049 54.0373547,74.9539721 54.2024075,75.2530813 C54.2990821,75.4282432 54.4227654,75.5893244 54.575125,75.7174007 C54.8014896,75.9076756 55.0968404,76.0214329 55.3897402,75.9966064 C55.6583478,75.9738443 55.909533,75.8370867 56.1055484,75.6492998 C56.2790242,75.4831104 56.4141419,75.2759492 56.5,75.0489375 C56.5858572,75.2759492 56.7209749,75.4831104 56.8944481,75.6492998 C57.0904661,75.8370867 57.3416486,75.9738178 57.6102563,75.9966064 C57.9031481,76.0214858 58.1984989,75.9076756 58.4248741,75.7174007 C58.5772337,75.5893244 58.700917,75.4282432 58.7975917,75.2530813 C58.9626577,74.9539721 59.0501577,74.5970049 58.9697318,74.2640437 C58.9253246,74.0802005 58.8321153,73.911576 58.7204161,73.7599702 C58.5550898,73.5356052 58.3494325,73.3457511 58.1473733,73.1548516 C57.8886997,72.9104692 57.6333588,72.6615768 57.4010751,72.3912616 C57.0408834,71.9720957 56.7377229,71.5025146 56.5028741,71" id="path3940-9-6-6" fill="#FFFFFF"></path>
                <path d="M30.4913578,51 C29.7868089,49.4924353 28.877333,48.083698 27.7967659,46.8262017 C27.0999072,46.0152401 26.3339084,45.2685709 25.5578754,44.5354108 C24.9516839,43.9627184 24.3347338,43.3931359 23.838734,42.7200228 C23.5036507,42.2652779 23.2240256,41.7593499 23.090809,41.2078236 C22.8495258,40.2089078 23.1120181,39.1380556 23.6072255,38.2407356 C23.8972422,37.7152296 24.2683088,37.2319367 24.7253756,36.847757 C25.4044836,36.2769464 26.2905341,35.9356548 27.1692253,36.0101479 C27.9750428,36.0784634 28.7286088,36.488658 29.3166414,37.0520127 C29.8370661,37.5505959 30.2424325,38.1721131 30.5,38.8531082 C30.7575675,38.1721131 31.1629339,37.5505959 31.6833586,37.0520127 C32.2713913,36.488658 33.0249573,36.0784634 33.8307667,36.0101479 C34.7094579,35.9356548 35.5955074,36.2769464 36.274617,36.847757 C36.7316904,37.2319367 37.1027482,37.7152296 37.3927668,38.2407356 C37.8879832,39.1380556 38.1504753,40.2089078 37.9091897,41.2078236 C37.7759733,41.7593499 37.4963403,42.2652779 37.161256,42.7200228 C36.6652668,43.3931359 36.0483082,43.9627184 35.4421228,44.5354108 C34.6660916,45.2685709 33.9000822,46.0152401 33.2032235,46.8262017 C32.122659,48.083698 31.2131831,49.4924353 30.5086342,51" id="path3940-9-3" fill="#FFFFFF"></path>
                <g id="text3755-0" transform="translate(2.000000, 2.000000)" fill="#FFFFFF">
                    <path d="M4.78630814,7.85787758 L3.81960397,7.85787758 L3.43757297,6.24772099 L1.4443687,6.24772099 L1.04572763,7.85787758 L0.0790235575,7.85787758 L1.96260181,0.0409020788 L2.90605197,0.0409020788 L4.78630814,7.85787758 Z M3.08876233,4.79698112 L2.44097083,2.11338239 L1.78985737,4.79698112 L3.08876233,4.79698112 Z" id="path895"></path>
                </g>
                <g id="text3755-2-2" transform="translate(56.500000, 81.000000) rotate(180.000000) translate(-56.500000, -81.000000) translate(54.000000, 77.000000)" fill="#FFFFFF">
                    <path d="M4.8397358,7.96870237 L3.87303321,7.96870237 L3.49100115,6.3585426 L1.49779673,6.3585426 L1.09915584,7.96870237 L0.13245118,7.96870237 L2.01602988,0.151724198 L2.95947928,0.151724198 L4.8397358,7.96870237 Z M3.1421909,4.90780617 L2.49439894,2.22420766 L1.8432848,4.90780617 L3.1421909,4.90780617 Z" id="path898"></path>
                </g>
            </g>
        </g>
    </g>
</svg>