<?xml version="1.0" encoding="UTF-8"?>
<svg width="24px" height="24px" viewBox="0 0 24 24" version="1.1" xmlns="http://www.w3.org/2000/svg" xmlns:xlink="http://www.w3.org/1999/xlink">
    <title>minus-outline</title>
    <g id="Page-1" stroke="none" stroke-width="1" fill="none" fill-rule="evenodd">
        <g id="img-1" transform="translate(-512.000000, -368.000000)" fill="#23578C" fill-rule="nonzero">
            <g id="minus-outline" transform="translate(512.000000, 368.000000)">
                <path d="M12,24 C5.372583,24 0,18.627417 0,12 C0,5.372583 5.372583,0 12,0 C18.627417,0 24,5.372583 24,12 C24,18.627417 18.627417,24 12,24 Z M12,21.6 C17.3019336,21.6 21.6,17.3019336 21.6,12 C21.6,6.6980664 17.3019336,2.4 12,2.4 C6.6980664,2.4 2.4,6.6980664 2.4,12 C2.4,17.3019336 6.6980664,21.6 12,21.6 Z M18,10.8 L18,13.2 L6,13.2 L6,10.8 L18,10.8 Z" id="Shape"></path>
            </g>
        </g>
    </g>
</svg>